<svg id="my_svg" xmlns="http://www.w3.org/2000/svg" version="1.0" width="500.000000pt" height="440.000000pt" viewBox="0 0 300.000000 240.000000" preserveAspectRatio="xMidYMid meet">  <g transform="translate(0.000000,240.000000) scale(0.100000,-0.100000)" fill="#585151" stroke="none"> <path d="M1655 1671 c-22 -10 -53 -32 -68 -49 -24 -25 -28 -36 -22 -61 8 -40 21 -40 29 0 3 17 24 49 45 71 37 36 43 39 88 36 41 -3 50 -7 71 -38 49 -72 9 -210 -90 -308 -29 -29 -72 -62 -96 -73 -24 -12 -41 -23 -38 -26 2 -3 32 10 65 27 107 57 187 169 198 275 14 134 -68 199 -182 146z"/> <path d="M1463 1618 c-12 -35 -49 -137 -82 -227 -34 -91 -61 -171 -61 -178 0 -9 9 -13 26 -11 23 3 29 15 75 156 28 83 54 152 60 152 5 0 9 -6 9 -12 0 -10 78 -234 86 -246 1 -2 18 5 38 15 44 21 46 11 -28 200 -29 76 -60 155 -67 176 -7 20 -18 37 -24 37 -6 0 -21 -28 -32 -62z m57 -67 c0 -13 2 -13 9 -2 6 9 8 0 7 -27 -1 -22 1 -39 5 -37 3 3 12 -15 19 -40 7 -25 16 -42 21 -39 5 3 6 -2 3 -11 -4 -8 1 -26 10 -40 22 -33 21 -68 -1 -63 -11 2 -17 11 -15 22 2 12 -1 16 -9 10 -9 -5 -10 -2 -6 9 3 10 2 17 -2 17 -5 0 -7 9 -4 20 3 11 0 20 -6 20 -5 0 -8 6 -5 14 7 17 -40 112 -61 124 -14 7 -15 14 -4 49 l13 41 13 -25 c7 -14 13 -33 13 -42z"/> <path d="M1178 1630 c-53 -16 -105 -53 -131 -92 -73 -114 -24 -253 116 -325 45 -23 67 -27 170 -31 69 -3 123 0 128 5 6 6 -29 9 -98 9 -98 -1 -114 2 -168 27 -76 36 -102 60 -131 122 -48 102 -19 198 75 247 75 39 147 39 227 -2 62 -31 85 -31 44 0 -55 41 -165 60 -232 40z"/> <path d="M1490 1368 c-1 -94 -20 -331 -30 -369 -13 -53 -41 -119 -49 -119 -4 0 -31 9 -61 19 -61 22 -70 20 -70 -14 0 -19 9 -26 47 -39 56 -19 54 -19 51 -3 -2 6 4 12 12 12 8 0 21 4 29 9 9 6 12 5 7 -2 -3 -5 0 -13 6 -16 7 -3 -2 -3 -20 0 -20 3 -31 1 -28 -5 10 -15 -72 -78 -122 -95 -62 -21 -158 -21 -202 2 -91 46 -27 153 85 140 27 -3 36 0 44 19 10 22 9 23 -40 23 -116 0 -185 -72 -147 -155 43 -94 265 -81 378 21 l25 23 95 -36 c146 -54 244 -76 316 -70 114 9 194 76 194 161 0 41 -31 106 -50 106 -6 0 -1 -13 11 -30 30 -39 31 -109 3 -147 -52 -71 -158 -83 -303 -34 -90 31 -221 88 -221 96 0 3 11 22 24 43 38 58 67 158 73 255 5 75 3 100 -17 163 -25 79 -40 94 -40 42z m38 -99 c-7 -5 -8 -9 -2 -9 16 0 11 -34 -10 -61 -9 -13 -14 -18 -10 -10 4 8 6 37 5 65 -2 44 -1 48 14 36 13 -11 13 -15 3 -21z"/> <path d="M1632 1230 c-19 -10 -36 -20 -38 -23 -2 -2 27 -89 65 -193 46 -124 67 -192 60 -200 -6 -8 8 -13 52 -18 91 -9 167 -7 174 4 4 6 -5 10 -20 10 -43 0 -80 26 -107 77 -27 48 -138 326 -138 343 0 18 -15 17 -48 0z m25 -26 c-3 -4 0 -16 8 -28 8 -11 15 -31 15 -44 0 -13 4 -21 9 -18 7 5 17 -26 23 -71 1 -7 5 -13 10 -13 4 0 8 -7 8 -16 0 -9 13 -43 29 -74 16 -32 28 -60 25 -63 -2 -2 2 -10 11 -17 22 -18 19 -25 -11 -28 -24 -2 -41 20 -34 44 1 4 -3 10 -8 13 -5 3 -19 35 -31 71 -12 36 -28 79 -36 95 -7 17 -21 54 -29 84 -13 44 -14 56 -4 63 16 9 24 10 15 2z"/> <path d="M1291 1147 c-5 -12 -25 -69 -45 -127 -21 -58 -42 -117 -48 -133 -15 -39 -64 -77 -99 -77 -16 0 -29 -4 -29 -9 0 -11 245 -9 256 2 4 4 -2 7 -14 7 -38 0 -52 11 -52 41 0 23 62 219 95 300 5 12 -1 16 -25 17 -23 0 -33 -5 -39 -21z"/> </g> </svg>
